<svg width="1010" height="820" viewBox="0 0 1010 820" fill="none" xmlns="http://www.w3.org/2000/svg">
<g clip-path="url(#clip0)">
<path opacity="0.1" d="M591 110C526.28 107.75 473.194 121.092 414.334 98.232C355 37.932 297.174 50.042 234.004 37.932C193.374 30.142 146.904 29.042 114.174 50.822C82.6641 71.822 72.4841 107.972 67.0141 141.552C62.8941 166.812 60.4741 193.402 71.7541 217.042C79.5941 233.462 93.4941 247.262 103.114 262.992C136.584 317.712 150.434 399.232 114.174 452.662C97.1741 477.732 32.2041 475.34 19.0741 502C5.94411 528.66 7.58413 571.532 19.0741 598.752C30.4541 625.752 57.5841 645.992 86.9741 660.242C146.664 689.192 216.974 697.472 285.584 702.162C437.414 712.552 590.044 708.052 742.274 703.552C798.614 701.882 855.194 700.192 910.614 691.482C941.394 686.642 973.164 678.972 995.514 660.432C1023.87 636.902 1030.9 597.062 1011.89 567.552C980.014 518.062 915.31 497.11 893 444C880.74 414.76 875.17 387.12 893 360C931.24 301.84 990.074 254.552 993.444 188.072C995.764 142.412 964.954 96.682 917.314 75.072C867.384 52.432 798.134 55.272 761.314 92.762C723.364 131.362 648.15 111.98 591 110Z" fill="#3012EE"/>
<path opacity="0.1" d="M483.49 802.11C651.368 802.11 787.46 783.7 787.46 760.99C787.46 738.28 651.368 719.87 483.49 719.87C315.612 719.87 179.52 738.28 179.52 760.99C179.52 783.7 315.612 802.11 483.49 802.11Z" fill="#38D39F"/>
<path opacity="0.1" d="M496.5 788C598.397 788 681 769.644 681 747C681 724.356 598.397 706 496.5 706C394.603 706 312 724.356 312 747C312 769.644 394.603 788 496.5 788Z" fill="#0B0B0B"/>
<path d="M296.074 703C298.004 702.792 492.04 681.874 627.226 646.147C706.497 625.238 750.66 603.257 758.071 581.024C767.356 553.227 706.456 522.19 602.142 494L590.807 495.271C824.94 558.546 731.902 612.771 608.534 645.431C474.674 680.828 282.93 701.527 281 701.729L296.074 703Z" fill="#444053"/>
<path d="M714.091 207.488C712.205 207.903 522.547 249.667 392.693 301.631C316.545 332.058 275.236 360.179 270.305 384.946C264.119 415.913 327.701 443.455 433.915 463.635L444.99 461.142C206.591 415.846 292.763 348.043 411.258 300.56C539.836 249.083 727.25 207.783 729.137 207.374L714.091 207.488Z" fill="#444053"/>
<path d="M649.37 269.82H645.09C643.825 269.82 642.8 270.845 642.8 272.11V340.55C642.8 341.815 643.825 342.84 645.09 342.84H649.37C650.635 342.84 651.66 341.815 651.66 340.55V272.11C651.66 270.845 650.635 269.82 649.37 269.82Z" fill="#3A3768"/>
<path d="M351.05 212.61H350.66C349.395 212.61 348.37 213.635 348.37 214.9V234.36C348.37 235.625 349.395 236.65 350.66 236.65H351.05C352.315 236.65 353.34 235.625 353.34 234.36V214.9C353.34 213.635 352.315 212.61 351.05 212.61Z" fill="#3A3768"/>
<path d="M351.5 256.63H350.48C349.215 256.63 348.19 257.655 348.19 258.92V296.18C348.19 297.445 349.215 298.47 350.48 298.47H351.5C352.765 298.47 353.79 297.445 353.79 296.18V258.92C353.79 257.655 352.765 256.63 351.5 256.63Z" fill="#3A3768"/>
<path d="M351.32 313.11H350.57C349.305 313.11 348.28 314.135 348.28 315.4V353.02C348.28 354.285 349.305 355.31 350.57 355.31H351.32C352.585 355.31 353.61 354.285 353.61 353.02V315.4C353.61 314.135 352.585 313.11 351.32 313.11Z" fill="#3A3768"/>
<path d="M608.59 133.17H390.17C368.636 133.17 351.18 150.626 351.18 172.16V696.57C351.18 718.104 368.636 735.56 390.17 735.56H608.59C630.124 735.56 647.58 718.104 647.58 696.57V172.16C647.58 150.626 630.124 133.17 608.59 133.17Z" fill="#28282F"/>
<path d="M605.77 148.82H571.77V152.91C571.77 155.456 571.268 157.977 570.294 160.329C569.319 162.681 567.891 164.818 566.09 166.617C564.29 168.417 562.152 169.844 559.799 170.818C557.447 171.791 554.926 172.291 552.38 172.29H444.25C441.704 172.291 439.183 171.791 436.831 170.818C434.478 169.844 432.34 168.417 430.54 166.617C428.739 164.818 427.311 162.681 426.336 160.329C425.362 157.977 424.86 155.456 424.86 152.91V148.82H393.03C386.787 148.82 380.799 151.3 376.385 155.715C371.97 160.129 369.49 166.117 369.49 172.36V696.33C369.49 702.573 371.97 708.561 376.385 712.975C380.799 717.39 386.787 719.87 393.03 719.87H605.77C612.013 719.87 618.001 717.39 622.415 712.975C626.83 708.561 629.31 702.573 629.31 696.33V172.4C629.315 169.305 628.71 166.24 627.53 163.379C626.349 160.519 624.616 157.919 622.429 155.729C620.243 153.539 617.646 151.801 614.788 150.616C611.929 149.43 608.865 148.82 605.77 148.82Z" fill="#333797"/>
<path d="M508.31 151.16H474.66C472.523 151.16 470.79 152.893 470.79 155.03V155.69C470.79 157.827 472.523 159.56 474.66 159.56H508.31C510.447 159.56 512.18 157.827 512.18 155.69V155.03C512.18 152.893 510.447 151.16 508.31 151.16Z" fill="#F2F2F2"/>
<path d="M523.21 160.13C525.844 160.13 527.98 157.994 527.98 155.36C527.98 152.726 525.844 150.59 523.21 150.59C520.576 150.59 518.44 152.726 518.44 155.36C518.44 157.994 520.576 160.13 523.21 160.13Z" fill="#E6E8EC"/>
<path opacity="0.1" d="M602.86 206.18H395.91V645.42H602.86V206.18Z" fill="black"/>
<path opacity="0.1" d="M511.35 513.29H501.6C501.541 513.235 501.488 513.175 501.44 513.11L501.6 512.29L502.85 509.05L511.23 512.29L511.35 513.29Z" fill="black"/>
<path opacity="0.1" d="M561.35 580.82C561.35 580.82 570.68 581.15 572.85 582.32Z" fill="black"/>
<path opacity="0.1" d="M563.18 584.17C563.18 584.17 571.68 583.84 572.85 585.17Z" fill="black"/>
<path opacity="0.1" d="M556.1 635.4C556.1 635.4 550.6 639.93 550.75 643.67Z" fill="black"/>
<path opacity="0.1" d="M429.1 724.67C429.1 724.67 429.1 728.92 436.97 735.17Z" fill="black"/>
<path opacity="0.1" d="M568.01 714.67C568.01 714.67 567.17 723.51 559.51 728.09Z" fill="black"/>
<path opacity="0.1" d="M864.17 757.89C879.043 757.89 891.1 755.853 891.1 753.34C891.1 750.827 879.043 748.79 864.17 748.79C849.297 748.79 837.24 750.827 837.24 753.34C837.24 755.853 849.297 757.89 864.17 757.89Z" fill="#38D39F"/>
<path opacity="0.1" d="M91.09 795.23C105.963 795.23 118.02 793.193 118.02 790.68C118.02 788.167 105.963 786.13 91.09 786.13C76.217 786.13 64.16 788.167 64.16 790.68C64.16 793.193 76.217 795.23 91.09 795.23Z" fill="#38D39F"/>
<path opacity="0.1" d="M195.26 819.64C210.133 819.64 222.19 817.603 222.19 815.09C222.19 812.577 210.133 810.54 195.26 810.54C180.387 810.54 168.33 812.577 168.33 815.09C168.33 817.603 180.387 819.64 195.26 819.64Z" fill="#38D39F"/>
<path d="M805.22 808.9C827.427 808.9 845.43 805.856 845.43 802.1C845.43 798.344 827.427 795.3 805.22 795.3C783.013 795.3 765.01 798.344 765.01 802.1C765.01 805.856 783.013 808.9 805.22 808.9Z" fill="#B9B9B9"/>
<path d="M821.85 790.98C823.683 789.481 825.018 787.463 825.68 785.19C826.18 782.9 825.2 780.19 823 779.3C820.54 778.36 817.91 780.07 815.92 781.79C813.93 783.51 811.64 785.48 809.03 785.11C810.373 783.895 811.379 782.353 811.948 780.633C812.518 778.914 812.632 777.077 812.28 775.3C812.163 774.563 811.848 773.872 811.37 773.3C810.01 771.84 807.53 772.46 805.9 773.62C800.7 777.27 799.25 784.34 799.22 790.69C798.69 788.4 799.14 786.01 799.12 783.69C799.1 781.37 798.47 778.69 796.48 777.46C795.252 776.801 793.873 776.477 792.48 776.52C790.14 776.43 787.54 776.67 785.94 778.38C783.94 780.5 784.48 784.06 786.2 786.38C787.92 788.7 790.55 790.19 792.97 791.8C794.906 792.954 796.557 794.53 797.8 796.41C797.95 796.673 798.071 796.951 798.16 797.24H812.77C816.064 795.571 819.119 793.465 821.85 790.98V790.98Z" fill="#161616"/>
<path d="M196.65 703.27C196.65 703.27 202.15 710.46 194.12 721.27C186.09 732.08 179.47 741.27 182.12 748.04C182.12 748.04 194.24 727.89 204.12 727.61C214 727.33 207.5 715.39 196.65 703.27Z" fill="#161616"/>
<path opacity="0.1" d="M196.65 703.27C197.13 703.966 197.507 704.727 197.77 705.53C207.39 716.83 212.52 727.38 203.27 727.64C194.66 727.89 184.33 743.29 181.85 747.18C181.93 747.48 182.03 747.77 182.14 748.07C182.14 748.07 194.26 727.92 204.14 727.64C214.02 727.36 207.5 715.39 196.65 703.27Z" fill="black"/>
<path d="M206.86 712.43C206.86 714.96 206.58 717.01 206.23 717.01C205.88 717.01 205.6 714.96 205.6 712.43C205.6 709.9 205.95 711.09 206.3 711.09C206.65 711.09 206.86 709.9 206.86 712.43Z" fill="#FFD037"/>
<path d="M210.37 715.45C208.15 716.66 206.21 717.39 206.05 717.08C205.89 716.77 207.54 715.54 209.76 714.33C211.98 713.12 211.11 714 211.27 714.33C211.43 714.66 212.59 714.24 210.37 715.45Z" fill="#FFD037"/>
<path d="M167.64 703.27C167.64 703.27 162.14 710.46 170.17 721.27C178.2 732.08 184.82 741.27 182.17 748.04C182.17 748.04 170.06 727.89 160.17 727.61C150.28 727.33 156.77 715.39 167.64 703.27Z" fill="#161616"/>
<path opacity="0.1" d="M167.64 703.27C167.159 703.966 166.779 704.727 166.51 705.53C156.89 716.83 151.77 727.38 161.01 727.64C169.63 727.89 179.96 743.29 182.44 747.18C182.358 747.482 182.258 747.78 182.14 748.07C182.14 748.07 170.03 727.92 160.14 727.64C150.25 727.36 156.77 715.39 167.64 703.27Z" fill="black"/>
<path d="M157.42 712.43C157.42 714.96 157.71 717.01 158.06 717.01C158.41 717.01 158.69 714.96 158.69 712.43C158.69 709.9 158.34 711.09 157.99 711.09C157.64 711.09 157.42 709.9 157.42 712.43Z" fill="#FFD037"/>
<path d="M153.92 715.45C156.14 716.66 158.07 717.39 158.24 717.08C158.41 716.77 156.74 715.54 154.52 714.33C152.3 713.12 153.18 714 153.01 714.33C152.84 714.66 151.7 714.24 153.92 715.45Z" fill="#FFD037"/>
<path d="M159.17 747.13C159.17 747.13 174.53 746.65 179.17 743.36C183.81 740.07 202.8 736.12 203.94 741.41C205.08 746.7 227.03 767.7 209.69 767.84C192.35 767.98 169.39 765.14 164.77 762.33C160.15 759.52 159.17 747.13 159.17 747.13Z" fill="#A8A8A8"/>
<path opacity="0.2" d="M209.99 766C192.65 766.14 169.69 763.3 165.07 760.49C161.56 758.34 160.15 750.65 159.68 747.11H159.17C159.17 747.11 160.17 759.49 164.76 762.31C169.35 765.13 192.34 767.96 209.68 767.82C214.68 767.82 216.41 766 216.32 763.36C215.62 764.98 213.71 765.97 209.99 766Z" fill="black"/>
<g opacity="0.5">
<path opacity="0.5" d="M501 585C571.14 585 628 537.318 628 478.5C628 419.682 571.14 372 501 372C430.86 372 374 419.682 374 478.5C374 537.318 430.86 585 501 585Z" fill="url(#paint0_linear)"/>
</g>
<path d="M501.364 582.486C525.657 582.519 549.423 576.554 569.7 565.336C565.119 544.341 547.684 543.145 547.684 543.145H451.543C451.543 543.145 435.091 544.277 429.953 563.59C450.858 575.922 475.805 582.522 501.364 582.486Z" fill="#FEFEFE"/>
<path d="M500.043 525.943C533.184 525.943 560.05 503.414 560.05 475.622C560.05 447.831 533.184 425.302 500.043 425.302C466.902 425.302 440.036 447.831 440.036 475.622C440.036 503.414 466.902 525.943 500.043 525.943Z" fill="#584A4A"/>
<path opacity="0.1" d="M480.676 517.536H519.126V543.331C519.126 547.605 517.101 551.705 513.498 554.728C509.894 557.751 505.006 559.451 499.908 559.452C494.81 559.452 489.92 557.754 486.315 554.73C482.709 551.707 480.684 547.606 480.684 543.331V517.536H480.676Z" fill="black"/>
<path d="M481.895 516.34H517.921C518.244 516.34 518.555 516.447 518.783 516.639C519.012 516.831 519.14 517.091 519.14 517.362V542.135C519.141 544.252 518.644 546.35 517.677 548.306C516.711 550.263 515.294 552.041 513.508 553.538C511.722 555.036 509.602 556.223 507.269 557.033C504.935 557.843 502.434 558.26 499.908 558.259C494.81 558.259 489.92 556.561 486.315 553.537C482.709 550.514 480.684 546.413 480.684 542.138V517.362C480.684 517.092 480.811 516.833 481.038 516.641C481.265 516.45 481.573 516.341 481.895 516.34Z" fill="#FDB797"/>
<path opacity="0.1" d="M480.745 529.712C493.137 533.594 506.778 533.625 519.195 529.8V525.833H480.745V529.712Z" fill="black"/>
<path d="M500.043 531.869C530.481 531.869 555.155 511.178 555.155 485.653C555.155 460.128 530.481 439.437 500.043 439.437C469.605 439.437 444.931 460.128 444.931 485.653C444.931 511.178 469.605 531.869 500.043 531.869Z" fill="#FDB797"/>
<path opacity="0.1" d="M460.786 443.614C460.786 443.614 484.013 483.151 549.533 460.191L534.278 440.133L507.237 431.994L460.786 443.614Z" fill="black"/>
<path d="M460.786 443.035C460.786 443.035 484.013 482.571 549.533 459.605L534.278 439.547L507.237 431.408L460.786 443.035Z" fill="#584A4A"/>
<path d="M460.582 440.355C462.148 436.29 464.855 432.599 468.475 429.592C479.315 420.606 497.088 418.71 506.204 408.463C508.387 411.307 506.699 415.68 502.929 416.901C511.662 416.852 521.782 416.211 526.72 410.187C527.941 412.57 528.33 415.194 527.842 417.754C527.354 420.315 526.01 422.707 523.966 424.652C531.706 424.957 539.977 429.351 540.465 435.836C540.799 440.157 537.553 444.246 533.336 446.724C529.118 449.202 523.98 450.34 518.94 451.271C504.224 453.996 450.979 465.4 460.582 440.355Z" fill="#584A4A"/>
<path d="M444.909 493.672C447.741 493.672 450.036 490.063 450.036 485.61C450.036 481.158 447.741 477.548 444.909 477.548C442.077 477.548 439.782 481.158 439.782 485.61C439.782 490.063 442.077 493.672 444.909 493.672Z" fill="#FDB797"/>
<path d="M555.148 493.672C557.98 493.672 560.275 490.063 560.275 485.61C560.275 481.158 557.98 477.548 555.148 477.548C552.316 477.548 550.021 481.158 550.021 485.61C550.021 490.063 552.316 493.672 555.148 493.672Z" fill="#FDB797"/>
</g>
<defs>
<linearGradient id="paint0_linear" x1="501" y1="585" x2="501" y2="372" gradientUnits="userSpaceOnUse">
<stop stop-color="#808080" stop-opacity="0.25"/>
<stop offset="0.54" stop-color="#808080" stop-opacity="0.12"/>
<stop offset="1" stop-color="#808080" stop-opacity="0.1"/>
</linearGradient>
<clipPath id="clip0">
<rect width="1009.54" height="839.64" fill="white" transform="translate(0 -20)"/>
</clipPath>
</defs>
</svg>
