<svg version="1.1" xmlns="http://www.w3.org/2000/svg" xmlns:xlink="http://www.w3.org/1999/xlink" viewBox="0 0 171 171">
  <g fill="none" fill-rule="nonzero" stroke="none" stroke-width="1" stroke-linecap="butt" stroke-linejoin="miter" stroke-miterlimit="10" stroke-dasharray="" stroke-dashoffset="0" font-family="none" font-weight="none" font-size="none" text-anchor="none" style="mix-blend-mode: normal">
  <path d="M0,171.98926v-171.98926h171.98926v171.98926z" fill="none"></path><g fill="#95a5a6"><path d="M85.5,87.6375c-22.39245,0 -40.6125,-18.22005 -40.6125,-40.6125c0,-22.39245 18.22005,-40.6125 40.6125,-40.6125c22.39245,0 40.6125,18.22005 40.6125,40.6125c0,22.39245 -18.22005,40.6125 -40.6125,40.6125z"></path>
  <path d="M85.5,8.55c21.21683,0 38.475,17.25818 38.475,38.475c0,21.21683 -17.25817,38.475 -38.475,38.475c-21.21682,0 -38.475,-17.25817 -38.475,-38.475c0,-21.21683 17.25818,-38.475 38.475,-38.475M85.5,4.275c-23.61082,0 -42.75,19.13918 -42.75,42.75c0,23.61083 19.13918,42.75 42.75,42.75c23.61083,0 42.75,-19.13917 42.75,-42.75c0,-23.61082 -19.13917,-42.75 -42.75,-42.75z"></path>
  <g><path d="M10.6875,164.5875v-9.82823c0,-32.5242 47.69618,-44.84475 51.38978,-45.74677h46.84973c3.68932,0.90202 51.3855,13.2183 51.3855,45.74678v9.82823z"></path>
  <path d="M108.66623,111.15c4.92907,1.23548 49.50878,13.27815 49.50878,43.60928v7.69073h-145.35v-7.69073c0,-30.33112 44.5797,-42.3738 49.50878,-43.60927h46.33245M109.17495,106.875h-47.3499c0,0 -53.27505,12.08543 -53.27505,47.88427c0,0 0,5.1471 0,11.96573h153.9c0,-6.81862 0,-11.96573 0,-11.96573c0,-35.79885 -53.27505,-47.88427 -53.27505,-47.88427z">
  </path></g></g></g>
</svg>