<svg version="1.1" xmlns="http://www.w3.org/2000/svg" viewBox="0 0 171 171">
  <g fill="none" fill-rule="nonzero" stroke="none" stroke-width="none" stroke-linecap="butt" stroke-linejoin="miter" stroke-miterlimit="10" stroke-dasharray="" stroke-dashoffset="0" font-family="none" font-weight="none" font-size="none" text-anchor="none" style="mix-blend-mode: normal">
    <path d="M0,171.98926v-171.98926h171.98926v171.98926z" fill="none" stroke="none" stroke-width="1"></path>
    <g><path d="M128.25,75.72735c0,0 0,-22.68315 0,-24.42735c0,-23.61082 -19.13917,-42.75 -42.75,-42.75c-23.61082,0 -42.75,19.13918 -42.75,42.75c0,1.7442 0,24.42735 0,24.42735" fill="none" stroke="#95a5a6" stroke-width="8.55"></path>
    <path d="M10.6875,160.3125v-66.2625c0,-15.3216 12.4659,-27.7875 27.7875,-27.7875h94.05c15.3216,0 27.7875,12.4659 27.7875,27.7875v66.2625z" fill="#95a5a6" stroke="none" stroke-width="1"></path>
    <path d="M132.525,68.4c14.1417,0 25.65,11.5083 25.65,25.65v64.125h-145.35v-64.125c0,-14.1417 11.5083,-25.65 25.65,-25.65h94.05M132.525,64.125h-94.05c-16.52715,0 -29.925,13.39785 -29.925,29.925v68.4h153.9v-68.4c0,-16.52715 -13.39785,-29.925 -29.925,-29.925z" fill="#95a5a6" stroke="none" stroke-width="1"></path>
    <g stroke="none" stroke-width="1"><path d="M75.19725,138.9375l3.80903,-22.84132l-1.23548,-0.7524c-4.52723,-2.75738 -7.2333,-7.51973 -7.2333,-12.74378c0,-8.25075 6.71175,-14.9625 14.9625,-14.9625c8.25075,0 14.9625,6.71175 14.9625,14.9625c0,5.22405 -2.70607,9.9864 -7.22902,12.74378l-1.23548,0.7524l3.80475,22.84132z" fill="#ffffff"></path>
    <path d="M85.5,89.775c7.07085,0 12.825,5.75415 12.825,12.825c0,4.47165 -2.32132,8.55428 -6.2073,10.91835l-2.47095,1.5048l0.47453,2.85143l3.15922,18.92543h-15.561l3.15495,-18.92543l0.47452,-2.85143l-2.47095,-1.5048c-3.8817,-2.36407 -6.20302,-6.4467 -6.20302,-10.91835c0,-7.07085 5.75415,-12.825 12.825,-12.825M85.5,85.5c-9.44347,0 -17.1,7.65653 -17.1,17.1c0,6.19448 3.32595,11.57243 8.2593,14.5692l-3.9843,23.9058h25.65l-3.9843,-23.9058c4.93335,-2.99677 8.2593,-8.37472 8.2593,-14.5692c0,-9.44347 -7.65653,-17.1 -17.1,-17.1z" fill="#95a5a6"></path>
  </g></g></g>
</svg>